<?xml version="1.0" standalone="no"?>
<!DOCTYPE svg PUBLIC "-//W3C//DTD SVG 1.1//EN" "http://www.w3.org/Graphics/SVG/1.1/DTD/svg11.dtd">
<svg width="100%" height="100%" viewBox="0 0 1357 687" version="1.1" xmlns="http://www.w3.org/2000/svg" xmlns:xlink="http://www.w3.org/1999/xlink" xml:space="preserve" style="fill-rule:evenodd;clip-rule:evenodd;stroke-linejoin:round;stroke-miterlimit:1.41421;">
    <g transform="matrix(1,0,0,1,-351.608,-451.762)">
        <g transform="matrix(0.732463,-7.26914e-19,-7.26914e-19,0.73543,271.402,206.366)">
            <path d="M575,928C572,920 571,858 572,789L575,665L655,665L655,935L617,938C593,940 578,937 575,928Z" style="fill:rgb(255,204,51);fill-rule:nonzero;"/>
        </g>
        <g transform="matrix(0.732463,-7.26914e-19,-7.26914e-19,0.73543,271.402,206.366)">
            <path d="M694,927C692,920 691,858 692,789L695,665L735,665C769,665 777,670 798,700C811,719 825,736 829,738C833,739 849,722 864,700C889,661 894,659 933,662L975,665L978,789C981,927 975,943 926,938C895,935 895,934 892,871L889,807L864,843C850,864 835,880 830,880C826,880 812,868 801,853C779,823 779,823 776,890C775,904 771,921 767,928C756,944 701,944 694,927Z" style="fill:rgb(255,204,51);fill-rule:nonzero;"/>
        </g>
        <g transform="matrix(0.732463,-7.26914e-19,-7.26914e-19,0.73543,271.402,206.366)">
            <path d="M1005,928C1002,920 1001,858 1002,789L1005,665L1078,662C1163,659 1213,677 1241,724C1280,788 1255,881 1189,915C1145,938 1012,948 1005,928ZM1154,834C1188,800 1158,740 1108,740C1093,740 1090,749 1090,795C1090,847 1092,850 1114,850C1128,850 1146,843 1154,834Z" style="fill:rgb(255,204,51);fill-rule:nonzero;"/>
        </g>
        <g transform="matrix(0.732463,-7.26914e-19,-7.26914e-19,0.73543,271.402,206.366)">
            <path d="M1281,926C1273,917 1270,871 1272,789L1275,665L1315,665C1354,665 1355,666 1360,705C1363,730 1368,740 1373,733C1388,709 1437,718 1469,751C1495,777 1500,789 1500,830C1500,871 1495,883 1469,909C1438,941 1394,950 1373,929C1365,921 1360,921 1356,929C1346,945 1295,943 1281,926ZM1414,845C1422,822 1410,800 1389,800C1367,800 1355,822 1364,845C1367,853 1378,860 1389,860C1399,860 1410,853 1414,845Z" style="fill:rgb(255,204,51);fill-rule:nonzero;"/>
        </g>
        <path id="layer2" d="M354,1127C352,1120 351,1056 352,985L355,856L387,848C448,832 449,748 388,732L355,724L355,589L355,455L1019,452C1509,451 1686,453 1697,461C1707,470 1710,501 1708,599L1705,725L1675,730C1607,742 1605,830 1672,848L1705,856L1705,1135L1032,1138C485,1140 358,1138 354,1127ZM1620,985C1620,930 1617,919 1599,910C1522,868 1522,712 1599,670C1617,661 1620,650 1620,600L1620,540L1030,540L440,540L440,597C440,650 443,657 478,693C512,728 515,735 515,790C515,845 512,852 478,887C442,923 440,930 440,988L440,1050L1620,1050L1620,985Z" style="fill:rgb(255,204,51);fill-rule:nonzero;"/>
    </g>
</svg>
