<?xml version="1.0" encoding="utf-8"?>
<!-- Generator: Adobe Illustrator 21.1.0, SVG Export Plug-In . SVG Version: 6.00 Build 0)  -->
<svg version="1.1" id="Layer_1" xmlns="http://www.w3.org/2000/svg" xmlns:xlink="http://www.w3.org/1999/xlink" x="0px" y="0px"
	 viewBox="0 0 223 92" style="enable-background:new 0 0 223 92;" xml:space="preserve">
<style type="text/css">
	.st0{fill:#FFFFFF;}
</style>
<polygon class="st0" points="104.5,10 104.5,11.9 102.9,11.9 102.9,20.2 101.3,20.2 101.3,11.9 99.8,11.9 99.8,10 "/>
<polygon class="st0" points="110.4,20.2 108.7,20.2 108.7,16 106.9,16 106.9,20.2 105.3,20.2 105.3,10 106.9,10 106.9,14.1 
	108.7,14.1 108.7,10 110.4,10 "/>
<polygon class="st0" points="116.6,10 116.6,11.8 113.7,11.8 113.7,14.1 116,14.1 116,15.9 113.7,15.9 113.7,18.4 116.6,18.4 
	116.6,20.2 112,20.2 112,10 "/>
<polygon class="st0" points="120.1,10 121.1,16.3 122.3,10 124.7,10 124.7,20.2 123.1,20.2 123.1,11.7 121.6,20.2 120.4,20.2 
	119,11.7 119,20.2 117.6,20.2 117.6,10 "/>
<path class="st0" d="M129.3,10l2.1,10.1h-1.7l-0.4-2.1h-2.1l-0.4,2.1h-1.5l2.3-10.1H129.3z M129.1,16.3l-0.8-4.1l-0.7,4.1H129.1z"/>
<polygon class="st0" points="135.7,10 135.7,11.9 134.2,11.9 134.2,20.2 132.5,20.2 132.5,11.9 131,11.9 131,10 "/>
<rect x="136.5" y="10" class="st0" width="1.6" height="10.1"/>
<path class="st0" d="M145,16.6c-0.1,2.1-1,3.7-2.7,3.7c-2.3,0-2.8-2.9-2.8-5.2c0-1.8,0.3-5.2,2.9-5.2c1.1,0,1.7,0.7,2.1,1.4
	c0.4,0.9,0.5,1.9,0.5,2.6l-1.5,0.2c-0.1-0.8-0.1-2.3-1.1-2.3c-0.9,0-1.1,1.5-1.1,3.6c0,1.7,0.2,3.2,1.1,3.2c0.9,0,1-1.5,1.1-2
	L145,16.6z"/>
<polygon class="st0" points="153.9,10 153.9,11.8 150.9,11.8 150.9,14.1 153.2,14.1 153.2,15.9 150.9,15.9 150.9,18.4 153.9,18.4 
	153.9,20.2 149.2,20.2 149.2,10 "/>
<polygon class="st0" points="156.5,10 156.5,18.3 159,18.3 159,20.2 154.9,20.2 154.9,10 "/>
<polygon class="st0" points="164.5,10 164.5,11.8 161.6,11.8 161.6,14.1 163.8,14.1 163.8,15.9 161.6,15.9 161.6,18.4 164.5,18.4 
	164.5,20.2 159.9,20.2 159.9,10 "/>
<polygon class="st0" points="167.9,10 169,16.3 170.2,10 172.6,10 172.6,20.2 171,20.2 171,11.7 169.5,20.2 168.3,20.2 166.9,11.7 
	166.9,20.2 165.5,20.2 165.5,10 "/>
<polygon class="st0" points="178.8,10 178.8,11.8 175.8,11.8 175.8,14.1 178.1,14.1 178.1,15.9 175.8,15.9 175.8,18.4 178.8,18.4 
	178.8,20.2 174.2,20.2 174.2,10 "/>
<polygon class="st0" points="181.6,10 183.5,16.3 183.5,10 184.8,10 184.8,20.2 183.3,20.2 181,12.8 181,20.2 179.7,20.2 179.7,10 
	"/>
<polygon class="st0" points="190.2,10 190.2,11.9 188.7,11.9 188.7,20.2 187,20.2 187,11.9 185.5,11.9 185.5,10 "/>
<path class="st0" d="M194.2,13c-0.1-0.4-0.3-1.3-1.1-1.3c-0.5,0-0.8,0.5-0.8,0.9c0,0.7,0.5,0.9,1.3,1.3c0.9,0.4,2.1,1.1,2.1,3.1
	c0,1.7-0.9,3.2-2.7,3.2c-0.5,0-1.4-0.1-2-1.1c-0.4-0.7-0.6-1.3-0.7-1.7l1.5-0.5c0.1,0.5,0.3,1.5,1.2,1.5c0.6,0,1-0.4,1-1.1
	c0-0.7-0.5-1-1-1.3c-1-0.5-2.3-1.1-2.3-3.2c0-1.6,0.8-3.1,2.4-3.1c1.9,0,2.3,1.7,2.4,2.4L194.2,13z"/>
<rect x="100.6" y="25.6" class="st0" width="1.7" height="10.1"/>
<polygon class="st0" points="105.7,25.6 107.6,31.9 107.6,25.6 108.9,25.6 108.9,35.8 107.4,35.8 105.1,28.4 105.1,35.8 103.8,35.8 
	103.8,25.6 "/>
<path class="st0" d="M115.7,32.2c-0.1,2.1-1,3.7-2.6,3.7c-2.3,0-2.9-2.9-2.9-5.2c0-1.8,0.3-5.2,2.9-5.2c1.2,0,1.7,0.7,2.1,1.4
	c0.4,0.9,0.5,1.9,0.5,2.6l-1.5,0.2c0-0.8-0.1-2.3-1.1-2.3c-0.9,0-1.1,1.5-1.1,3.6c0,1.7,0.1,3.2,1.1,3.2c0.9,0,1-1.5,1.1-2
	L115.7,32.2z"/>
<polygon class="st0" points="118.5,25.6 118.5,33.9 120.9,33.9 120.9,35.8 116.9,35.8 116.9,25.6 "/>
<path class="st0" d="M123.5,25.6v5.8c0,1.5,0,2.7,1.1,2.7c0.5,0,0.7-0.3,0.9-0.7c0.1-0.4,0.1-0.9,0.1-2v-5.8h1.4v5.7
	c0,1.8,0,3.2-0.9,4c-0.4,0.3-0.9,0.6-1.6,0.6c-2.6,0-2.6-2.4-2.6-4.5v-5.8H123.5z"/>
<path class="st0" d="M128.7,25.6h1.8c1.2,0,3.5,0,3.5,5c0,1.9-0.4,3.6-1.2,4.4c-0.7,0.7-1.5,0.7-2.1,0.7h-2V25.6z M130.3,34h0.3
	c0.7,0,1.6-0.1,1.6-3.4c0-3.1-0.9-3.2-1.6-3.2h-0.3V34z"/>
<rect x="135.2" y="25.6" class="st0" width="1.6" height="10.1"/>
<polygon class="st0" points="140.3,25.6 142.2,31.9 142.2,25.6 143.5,25.6 143.5,35.8 142,35.8 139.7,28.4 139.7,35.8 138.4,35.8 
	138.4,25.6 "/>
<path class="st0" d="M150.4,30.3v5.4h-0.7l-0.2-1.2c-0.2,0.3-0.7,1.3-1.8,1.3c-1.9,0-2.8-2.3-2.8-5.1c0-1.5,0.2-5.4,2.9-5.4
	c2.1,0,2.5,2,2.6,3.5l-1.5,0.3c-0.1-0.8-0.2-2-1.1-2c-0.9,0-1.2,1.4-1.2,3.5c0,1.8,0.2,3.4,1.3,3.4c1,0,1-1.3,1-2h-1.1v-1.8H150.4z"
	/>
<path class="st0" d="M154.9,25.6h2.6c0.7,0,1.6,0,2.1,0.9c0.3,0.5,0.4,1.2,0.4,1.8c0,1.6-0.7,2-1.1,2.2c0.2,0.1,0.5,0.2,0.8,0.6
	c0.3,0.4,0.5,1,0.5,1.9c0,0.9-0.3,1.9-0.8,2.3c-0.6,0.5-1.2,0.5-1.8,0.5h-2.6V25.6z M156.5,29.7h0.5c0.4,0,1.2,0,1.2-1.3
	c0-1.2-0.8-1.2-1.1-1.2h-0.7V29.7z M156.5,34h0.8c0.7,0,1.1-0.3,1.1-1.3c0-1.3-0.8-1.3-1.2-1.3h-0.8V34z"/>
<path class="st0" d="M163.2,25.6v5.8c0,1.5,0,2.7,1.1,2.7c0.5,0,0.7-0.3,0.9-0.7c0.1-0.4,0.1-0.9,0.1-2v-5.8h1.4v5.7
	c0,1.8,0,3.2-0.9,4c-0.4,0.3-0.9,0.6-1.6,0.6c-2.6,0-2.6-2.4-2.6-4.5v-5.8H163.2z"/>
<polygon class="st0" points="169.9,25.6 169.9,33.9 172.4,33.9 172.4,35.8 168.3,35.8 168.3,25.6 "/>
<polygon class="st0" points="174.9,25.6 174.9,33.9 177.4,33.9 177.4,35.8 173.3,35.8 173.3,25.6 "/>
<polygon class="st0" points="178.5,25.6 179.6,29.3 180.7,25.6 182.4,25.6 180.3,31.5 180.3,35.8 178.6,35.8 178.6,31.5 176.7,25.6 
	"/>
<rect x="183" y="25.6" class="st0" width="1.6" height="10.1"/>
<polygon class="st0" points="188,25.6 190,31.9 190,25.6 191.3,25.6 191.3,35.8 189.8,35.8 187.5,28.4 187.5,35.8 186.2,35.8 
	186.2,25.6 "/>
<path class="st0" d="M198.1,30.3v5.4h-0.7l-0.2-1.2c-0.2,0.3-0.7,1.3-1.8,1.3c-1.9,0-2.8-2.3-2.8-5.1c0-1.5,0.2-5.4,2.9-5.4
	c2.1,0,2.5,2,2.6,3.5l-1.5,0.3c-0.1-0.8-0.2-2-1.1-2c-0.9,0-1.2,1.4-1.2,3.5c0,1.8,0.2,3.4,1.3,3.4c1,0,1-1.3,1-2h-1.1v-1.8H198.1z"
	/>
<polygon class="st0" points="201.1,33.5 201.1,35.6 200.2,38.2 199.5,38.2 200.3,35.8 199.5,35.8 199.5,33.5 "/>
<path class="st0" d="M103.6,41.2l2.2,10.1h-1.7l-0.4-2.1h-2.1l-0.4,2.1h-1.5l2.3-10.1H103.6z M103.4,47.5l-0.8-4.1l-0.7,4.1H103.4z"
	/>
<polygon class="st0" points="108.4,41.2 110.3,47.5 110.3,41.2 111.6,41.2 111.6,51.4 110.1,51.4 107.8,44 107.8,51.4 106.5,51.4 
	106.5,41.2 "/>
<path class="st0" d="M113.2,41.2h1.8c1.2,0,3.5,0,3.5,5c0,1.9-0.4,3.6-1.2,4.4c-0.7,0.7-1.5,0.7-2.1,0.7h-2V41.2z M114.8,49.6h0.3
	c0.7,0,1.6-0.1,1.6-3.4c0-3.1-0.9-3.2-1.6-3.2h-0.3V49.6z"/>
<path class="st0" d="M126.1,44.1c-0.1-0.4-0.3-1.3-1.1-1.3c-0.5,0-0.8,0.5-0.8,0.9c0,0.7,0.5,0.9,1.3,1.3c0.9,0.4,2.1,1.1,2.1,3.1
	c0,1.7-0.9,3.2-2.7,3.2c-0.5,0-1.4-0.1-2-1.1c-0.4-0.7-0.6-1.3-0.7-1.7l1.5-0.5c0.1,0.5,0.3,1.5,1.2,1.5c0.6,0,1-0.4,1-1.1
	c0-0.7-0.5-1-1-1.3c-1-0.5-2.3-1.1-2.3-3.2c0-1.6,0.8-3.1,2.4-3.1c1.9,0,2.3,1.7,2.4,2.4L126.1,44.1z"/>
<path class="st0" d="M134.1,46.3c0,1.9-0.2,5.2-2.7,5.2c-2.4,0-2.7-3.2-2.7-5.2c0-1.9,0.3-5.2,2.7-5.2
	C133.7,41,134.1,44.2,134.1,46.3 M130.3,46.3c0,2.2,0.2,3.4,1,3.4c0.9,0,1-1.3,1-3.4c0-2.1-0.1-3.4-1-3.4
	C130.5,42.9,130.3,44.1,130.3,46.3"/>
<polygon class="st0" points="137.8,41.2 138.9,47.5 140.1,41.2 142.5,41.2 142.5,51.4 140.9,51.4 140.9,42.9 139.4,51.4 138.2,51.4 
	136.8,42.9 136.8,51.4 135.4,51.4 135.4,41.2 "/>
<polygon class="st0" points="148.7,41.2 148.7,43 145.8,43 145.8,45.3 148,45.3 148,47 145.8,47 145.8,49.5 148.7,49.5 148.7,51.4 
	144.1,51.4 144.1,41.2 "/>
<polygon class="st0" points="155.2,41.2 156.3,47.5 157.5,41.2 159.9,41.2 159.9,51.4 158.3,51.4 158.3,42.9 156.8,51.4 155.6,51.4 
	154.2,42.9 154.2,51.4 152.8,51.4 152.8,41.2 "/>
<rect x="161.5" y="41.2" class="st0" width="1.7" height="10.1"/>
<polygon class="st0" points="166.4,41.2 166.4,49.4 168.9,49.4 168.9,51.4 164.8,51.4 164.8,41.2 "/>
<path class="st0" d="M169.8,41.2h1.8c1.2,0,3.5,0,3.5,5c0,1.9-0.4,3.6-1.2,4.4c-0.7,0.7-1.5,0.7-2.1,0.7h-2V41.2z M171.5,49.6h0.3
	c0.7,0,1.6-0.1,1.6-3.4c0-3.1-0.9-3.2-1.6-3.2h-0.3V49.6z"/>
<polygon class="st0" points="102.3,56.8 102.3,65 104.7,65 104.7,66.9 100.6,66.9 100.6,56.8 "/>
<path class="st0" d="M108.7,56.8l2.2,10.1h-1.7l-0.4-2.1h-2.1l-0.4,2.1h-1.5l2.3-10.1H108.7z M108.4,63.1l-0.8-4.1l-0.7,4.1H108.4z"
	/>
<polygon class="st0" points="113.4,56.8 115.4,63.1 115.4,56.8 116.7,56.8 116.7,66.9 115.2,66.9 112.9,59.6 112.9,66.9 111.6,66.9 
	111.6,56.8 "/>
<path class="st0" d="M123.5,61.5v5.4h-0.7l-0.2-1.2c-0.2,0.3-0.6,1.3-1.8,1.3c-1.9,0-2.8-2.3-2.8-5.1c0-1.5,0.2-5.4,3-5.4
	c2.1,0,2.5,2,2.6,3.5l-1.5,0.3c-0.1-0.8-0.2-2-1.1-2c-0.9,0-1.2,1.4-1.2,3.5c0,1.8,0.2,3.4,1.3,3.4c1,0,1-1.3,1-2h-1.1v-1.8H123.5z"
	/>
<path class="st0" d="M126.6,56.8v5.8c0,1.5,0,2.7,1.1,2.7c0.5,0,0.7-0.3,0.9-0.7c0.1-0.4,0.1-0.9,0.1-2v-5.8h1.4v5.7
	c0,1.8,0,3.2-0.9,4c-0.4,0.3-0.9,0.6-1.6,0.6c-2.6,0-2.6-2.4-2.6-4.5v-5.8H126.6z"/>
<path class="st0" d="M134.4,56.8l2.2,10.1h-1.7l-0.4-2.1h-2.1l-0.4,2.1h-1.5l2.3-10.1H134.4z M134.2,63.1l-0.7-4.1l-0.7,4.1H134.2z"
	/>
<path class="st0" d="M142.5,61.5v5.4h-0.7l-0.2-1.2c-0.2,0.3-0.7,1.3-1.8,1.3c-1.9,0-2.8-2.3-2.8-5.1c0-1.5,0.2-5.4,2.9-5.4
	c2.1,0,2.5,2,2.6,3.5l-1.5,0.3c-0.1-0.8-0.2-2-1.1-2c-0.9,0-1.2,1.4-1.2,3.5c0,1.8,0.2,3.4,1.3,3.4c1,0,1-1.3,1-2h-1.1v-1.8H142.5z"
	/>
<polygon class="st0" points="148.5,56.8 148.5,58.5 145.6,58.5 145.6,60.9 147.9,60.9 147.9,62.6 145.6,62.6 145.6,65.1 148.5,65.1 
	148.5,66.9 143.9,66.9 143.9,56.8 "/>
<rect x="149.5" y="64.7" class="st0" width="1.5" height="2.2"/>
<path class="st0" d="M217.4,78.9c2.6,0,4.6,2.1,4.6,4.7c0,2.7-2.1,4.7-4.6,4.7c-2.6,0-4.7-2.1-4.7-4.7
	C212.7,81,214.8,78.9,217.4,78.9L217.4,78.9z M217.4,79.6c-2.1,0-3.8,1.8-3.8,4c0,2.2,1.7,4,3.8,4c2.1,0,3.8-1.8,3.8-4
	C221.1,81.4,219.5,79.6,217.4,79.6L217.4,79.6z M216.5,86.3h-0.8v-5.3c0.4-0.1,0.9-0.1,1.5-0.1c0.8,0,1.3,0.2,1.6,0.4
	c0.3,0.2,0.5,0.6,0.5,1.1c0,0.7-0.5,1.1-1,1.3v0c0.5,0.1,0.8,0.5,0.9,1.3c0.1,0.8,0.2,1.1,0.3,1.3h-0.9c-0.1-0.2-0.2-0.7-0.4-1.3
	c-0.1-0.7-0.5-0.9-1.1-0.9h-0.6V86.3z M216.5,83.4h0.6c0.7,0,1.3-0.2,1.3-0.9c0-0.5-0.3-0.9-1.3-0.9c-0.3,0-0.5,0-0.6,0.1V83.4z"/>
<path class="st0" d="M0.7,89.3h210.2V2.6H0.7V89.3z M2.4,21.7h89.3v50.8H2.4V21.7z M185.5,87.4H2.4V74.1h183V87.4z M209.1,87.4
	h-21.9V74.1h21.9V87.4z M209.1,72.5H93.6v-68h115.6V72.5z M7.5,11.4H6.3v-6h2.1c0.5,0,1,0,1.5,0.3c0.5,0.4,0.7,0.9,0.7,1.5
	c0,0.6-0.2,1.1-0.6,1.5c-0.5,0.4-1,0.4-1.6,0.4H7.5V11.4z M8.2,8.1c0.3,0,0.6,0,0.8-0.2c0.1-0.2,0.2-0.4,0.2-0.5
	c0-0.2-0.1-0.5-0.3-0.6C8.7,6.5,8.5,6.5,8.2,6.5H7.5v1.6H8.2z M15.4,11.4h-1.4l-0.3-1.2H12l-0.4,1.2h-1.1l1.8-6h1.5L15.4,11.4z
	 M13.4,9.1L12.8,7l-0.6,2.1H13.4z M17.5,11.4h-1.3v-6h2.3c0.5,0,1,0,1.4,0.3c0.4,0.3,0.7,0.9,0.7,1.5c0,0.7-0.4,1.3-1,1.5l1,2.7
	h-1.4l-0.8-2.4h-0.9V11.4z M17.5,8h0.7c0.3,0,0.5,0,0.8-0.1c0.2-0.1,0.3-0.4,0.3-0.7c0-0.2-0.1-0.5-0.3-0.6
	c-0.2-0.1-0.6-0.1-0.8-0.1h-0.7V8z M22.8,6.6v1.2h2.1v1.1h-2.1v1.3h2.6v1.2h-3.9v-6h3.9v1.2H22.8z M30.5,11.4h-1.1l-2.1-4h0v4h-1v-6
	h1.4L29.5,9h0V5.4h1V11.4z M35.3,6.6H34v4.8h-1.3V6.6h-1.4V5.4h4V6.6z M40.1,11.4h-1.4l-0.3-1.2h-1.8l-0.3,1.2h-1.1l1.8-6h1.5
	L40.1,11.4z M38.1,9.1L37.5,7L37,9.1H38.1z M44.3,10.2v1.2h-3.5v-6h1.3v4.8H44.3z M49.5,9.3V8.2h2.2v3.2h-0.6L51,10.7
	c-0.4,0.5-0.9,0.8-1.5,0.8c-1.6,0-2.2-1.5-2.2-3c0-1.6,0.7-3.1,2.4-3.1c1.2,0,2,0.8,2.1,2.1l-1.2,0.2c-0.1-0.6-0.4-1.1-1-1.1
	c-0.9,0-1,1.3-1,2c0,0.8,0.2,1.9,1.1,1.9c0.5,0,0.9-0.4,0.9-1H49.5z M57.2,9.1c0,0.7,0,1.3-0.4,1.8c-0.4,0.5-1.1,0.6-1.7,0.6
	c-0.6,0-1.2-0.1-1.7-0.5c-0.5-0.5-0.6-1.2-0.6-1.9V5.4h1.4v3.6c0,0.3,0,0.7,0.1,0.9c0.2,0.3,0.5,0.4,0.8,0.4c0.2,0,0.6-0.1,0.8-0.3
	c0.2-0.3,0.2-0.7,0.2-1V5.4h1.1V9.1z M59.6,11.4h-1.3v-6h1.3V11.4z M62.4,5.4c0.8,0,1.5,0.1,2.1,0.7c0.6,0.6,0.9,1.4,0.9,2.3
	c0,0.8-0.2,1.6-0.7,2.2c-0.5,0.7-1.2,0.8-2,0.8h-1.8v-6H62.4z M62.1,10.3h0.4c0.5,0,0.9-0.1,1.2-0.6C63.9,9.3,64,8.8,64,8.4
	c0-0.5-0.1-1-0.4-1.4c-0.3-0.4-0.6-0.5-1.1-0.5h-0.4V10.3z M70.6,11.4h-1.4l-0.3-1.2h-1.8l-0.4,1.2h-1.1l1.8-6h1.5L70.6,11.4z
	 M68.6,9.1L68,7l-0.6,2.1H68.6z M75.5,11.4h-1.1l-2.1-4h0v4h-1v-6h1.4L74.5,9h0V5.4h1V11.4z M79.8,7.8c0-0.7-0.2-1.3-0.9-1.3
	c-0.9,0-1,1.3-1,2c0,0.8,0.1,1.9,1,1.9c0.6,0,0.9-0.5,0.9-1.1l1.2,0.1c-0.1,1.4-1,2.2-2.2,2.2c-1.6,0-2.4-1.5-2.4-3.1
	c0-1.7,0.8-3.1,2.5-3.1c1.4,0,2.1,0.9,2.2,2.3L79.8,7.8z M83.4,6.6v1.2h2.1v1.1h-2.1v1.3H86v1.2h-3.9v-6H86v1.2H83.4z M27.9,15.4
	c-0.2-0.5-0.5-0.7-0.9-0.7c-0.3,0-0.8,0.1-0.8,0.6c0,0.4,0.5,0.5,0.8,0.6c0.4,0.1,1,0.2,1.4,0.5c0.4,0.3,0.7,0.8,0.7,1.4
	c0,0.6-0.3,1.1-0.7,1.5c-0.4,0.4-1,0.5-1.6,0.5c-1,0-1.9-0.5-2.2-1.7l1.2-0.3c0.2,0.6,0.6,0.8,1.1,0.8c0.4,0,0.9-0.1,0.9-0.6
	c0-0.5-0.6-0.6-0.9-0.7c-1-0.2-1.9-0.5-1.9-1.8c0-0.6,0.2-1.1,0.6-1.4c0.4-0.4,0.9-0.5,1.4-0.5c1,0,1.7,0.4,2.1,1.4L27.9,15.4z
	 M34.3,17.3c0,0.7,0,1.3-0.4,1.8c-0.4,0.5-1.1,0.6-1.7,0.6c-0.6,0-1.2-0.1-1.7-0.5C30,18.7,30,18,30,17.3v-3.6h1.4v3.6
	c0,0.3,0,0.7,0.1,0.9c0.2,0.3,0.5,0.4,0.8,0.4c0.3,0,0.6-0.1,0.8-0.3c0.2-0.3,0.1-0.7,0.1-1v-3.6h1.1V17.3z M37.5,17.6v-1.1h2.2v3.2
	h-0.6L38.9,19c-0.4,0.5-0.9,0.8-1.5,0.8c-1.6,0-2.2-1.5-2.2-3c0-1.6,0.7-3.2,2.4-3.2c1.2,0,2,0.8,2.1,2.1l-1.2,0.2
	c-0.1-0.6-0.4-1.1-1-1.1c-0.9,0-1,1.3-1,2c0,0.8,0.2,1.9,1.1,1.9c0.5,0,0.9-0.4,0.9-1H37.5z M42.8,17.6v-1.1h2.2v3.2h-0.6L44.3,19
	c-0.4,0.5-0.9,0.8-1.5,0.8c-1.6,0-2.3-1.5-2.3-3c0-1.6,0.7-3.2,2.4-3.2c1.2,0,2,0.8,2.1,2.1l-1.2,0.2c-0.1-0.6-0.4-1.1-1-1.1
	c-0.9,0-1,1.3-1,2c0,0.8,0.2,1.9,1.1,1.9c0.5,0,0.9-0.4,0.9-1H42.8z M47.5,14.8V16h2.1v1.1h-2.1v1.3h2.6v1.2h-3.9v-6h3.9v1.2H47.5z
	 M53.8,15.4c-0.2-0.5-0.5-0.7-0.9-0.7c-0.4,0-0.8,0.1-0.8,0.6c0,0.4,0.5,0.5,0.8,0.6c0.5,0.1,1,0.2,1.4,0.5c0.4,0.3,0.7,0.8,0.7,1.4
	c0,0.6-0.2,1.1-0.7,1.5c-0.4,0.4-1,0.5-1.6,0.5c-1,0-2-0.5-2.2-1.7l1.2-0.3c0.2,0.6,0.6,0.8,1.1,0.8c0.4,0,0.9-0.1,0.9-0.6
	c0-0.5-0.6-0.6-1-0.7c-1-0.2-1.9-0.5-1.9-1.8c0-0.6,0.2-1.1,0.6-1.4c0.4-0.4,0.9-0.5,1.4-0.5c1,0,1.7,0.4,2.1,1.4L53.8,15.4z
	 M59.5,14.9h-1.4v4.8h-1.3v-4.8h-1.4v-1.2h4V14.9z M61.6,14.8V16h2.1v1.1h-2.1v1.3h2.6v1.2h-3.9v-6h3.9v1.2H61.6z M66.7,13.6
	c0.8,0,1.5,0.1,2.1,0.7c0.6,0.6,0.9,1.5,0.9,2.3c0,0.8-0.2,1.6-0.7,2.2c-0.5,0.7-1.2,0.8-2,0.8h-1.8v-6H66.7z M66.3,18.5h0.4
	c0.5,0,0.9-0.1,1.2-0.6c0.2-0.4,0.3-0.9,0.3-1.3s-0.1-1-0.4-1.3c-0.3-0.4-0.6-0.5-1.1-0.5h-0.4V18.5z"/>
<path class="st0" d="M198.1,76.9c-5.3,0-9.5,1.9-9.5,4.3c0,2.4,4.3,4.3,9.5,4.3c5.3,0,9.6-1.9,9.6-4.3
	C207.6,78.8,203.3,76.9,198.1,76.9 M206.9,80.9h-1.8c-0.1-1-0.8-2-1.9-2.7C205.3,78.9,206.7,79.8,206.9,80.9 M204.5,80.9h-2.2
	c-0.1-1.2-0.7-2.3-1.5-3C202.9,78.4,204.3,79.5,204.5,80.9 M198.1,84.9c-2,0-3.6-1.6-3.6-3.7c0-2,1.6-3.7,3.6-3.7
	c2,0,3.7,1.6,3.7,3.7C201.7,83.2,200.1,84.9,198.1,84.9 M193.8,80.9h-2.2c0.2-1.3,1.7-2.5,3.7-3C194.4,78.6,193.9,79.7,193.8,80.9
	 M192.9,78.2c-1.1,0.7-1.8,1.6-1.9,2.7h-1.8C189.4,79.8,190.8,78.9,192.9,78.2 M189.2,81.5h1.7c0.1,1,0.9,1.9,1.9,2.6
	C190.8,83.5,189.4,82.6,189.2,81.5 M191.6,81.5h2.2c0.1,1.2,0.7,2.2,1.5,3C193.3,84,191.8,82.9,191.6,81.5 M202.3,81.5h2.2
	c-0.2,1.3-1.7,2.4-3.7,3C201.7,83.8,202.3,82.7,202.3,81.5 M203.2,84.2c1.1-0.7,1.8-1.6,1.9-2.6h1.8
	C206.7,82.6,205.3,83.5,203.2,84.2"/>
<path class="st0" d="M197.5,81.2c0-0.3,0.2-0.5,0.5-0.5c0.3,0,0.5,0.2,0.5,0.5c0,0.3-0.2,0.5-0.5,0.5
	C197.8,81.7,197.5,81.5,197.5,81.2"/>
<path class="st0" d="M198.1,79l0.7-0.7c-0.4-0.4-0.9-0.4-1.3,0L198.1,79z"/>
<path class="st0" d="M198.6,79.8c0-0.5,0.4-0.9,0.9-0.9c0.5,0,0.9,0.4,0.9,0.9c0,0.5-0.4,0.9-0.9,0.9
	C199,80.7,198.6,80.3,198.6,79.8"/>
<path class="st0" d="M195.6,79.8c0-0.5,0.4-0.9,0.9-0.9c0.5,0,0.9,0.4,0.9,0.9c0,0.5-0.4,0.9-0.9,0.9
	C196.1,80.7,195.6,80.3,195.6,79.8"/>
<path class="st0" d="M195.7,82.7c0-0.5,0.4-0.9,0.9-0.9c0.5,0,0.9,0.4,0.9,0.9c0,0.5-0.4,0.9-0.9,0.9
	C196.1,83.6,195.7,83.2,195.7,82.7"/>
<path class="st0" d="M198.5,82.6c0-0.5,0.4-0.9,0.9-0.9c0.5,0,0.9,0.4,0.9,0.9c0,0.5-0.4,0.9-0.9,0.9
	C198.9,83.6,198.5,83.2,198.5,82.6"/>
<path class="st0" d="M198,83.4l-0.7,0.7c0.4,0.4,0.9,0.4,1.3,0L198,83.4z"/>
<path class="st0" d="M200.2,81.2l0.7,0.7c0.4-0.4,0.4-0.9,0-1.3L200.2,81.2z"/>
<path class="st0" d="M195.8,81.2l-0.7,0.7c-0.4-0.4-0.4-0.9,0-1.3L195.8,81.2z"/>
<path class="st0" d="M8.8,78.9c-0.2-0.6-0.5-0.9-0.9-0.9c-0.4,0-0.8,0.1-0.8,0.7c0,0.5,0.5,0.6,0.8,0.7c0.5,0.1,1.1,0.3,1.4,0.6
	c0.5,0.4,0.7,1,0.7,1.7c0,0.7-0.2,1.4-0.7,1.8c-0.4,0.4-1,0.6-1.6,0.6c-1,0-2-0.6-2.2-2l1.2-0.4c0.2,0.7,0.6,1,1.2,1
	c0.4,0,0.9-0.2,0.9-0.8c0-0.6-0.6-0.7-1-0.8c-1-0.2-1.9-0.6-1.9-2.2c0-0.7,0.2-1.2,0.6-1.7c0.4-0.4,0.9-0.6,1.4-0.6
	c1,0,1.7,0.4,2.1,1.7L8.8,78.9z"/>
<path class="st0" d="M14.5,81.4c0,1.5-0.8,2.7-2,2.7c-1.3,0-1.9-1.2-1.9-2.8c0-1.5,0.7-2.7,1.9-2.7C13.9,78.6,14.5,79.9,14.5,81.4
	 M11.9,81.2c0,0.6,0,1.9,0.7,1.9c0.7,0,0.7-1,0.7-1.7c0-0.4,0-0.9-0.1-1.3c-0.1-0.3-0.3-0.5-0.6-0.5C11.9,79.6,11.9,80.6,11.9,81.2"
	/>
<path class="st0" d="M16.4,78.7v0.8c0.2-0.6,0.6-0.9,1.1-0.9c0.5,0,0.9,0.3,1.1,0.9c0.2-0.6,0.7-0.9,1.2-0.9c0.4,0,0.7,0.2,1,0.5
	c0.3,0.4,0.2,1,0.2,1.6V84h-1.2v-2.8c0-0.2,0-0.7,0-0.9c-0.1-0.3-0.2-0.4-0.5-0.4c-0.2,0-0.4,0.2-0.5,0.4c-0.1,0.2-0.1,0.7-0.1,1V84
	h-1.2v-2.8c0-0.5,0.1-1.4-0.5-1.4c-0.6,0-0.6,0.8-0.6,1.4V84h-1.2v-5.3H16.4z"/>
<path class="st0" d="M23,81.6v0.3c0,0.6,0.3,1.1,0.8,1.1c0.4,0,0.7-0.3,0.7-0.8l1.1,0.1c0,0.3-0.5,1.8-1.8,1.8c-1.2,0-2-1.1-2-2.7
	c0-1.6,0.7-2.8,2-2.8c0.6,0,1.2,0.3,1.5,0.9c0.3,0.6,0.4,1.4,0.4,2.1H23z M24.4,80.7c0-0.6-0.2-1.1-0.7-1.1c-0.5,0-0.7,0.5-0.8,1.1
	H24.4z"/>
<polygon class="st0" points="32.2,84 31.4,84 30,78.2 30,78.2 30,84 28.9,84 28.9,76.9 30.9,76.9 31.9,81.2 32.9,76.9 34.9,76.9 
	34.9,84 33.6,84 33.6,78.2 33.6,78.2 "/>
<path class="st0" d="M38.4,84c-0.1-0.3-0.1-0.5-0.1-0.8c-0.3,0.6-0.7,0.9-1.3,0.9c-0.7,0-1.3-0.5-1.3-1.5c0-0.8,0.4-1.3,0.9-1.6
	c0.5-0.2,1.1-0.3,1.6-0.3v-0.1c0-0.2,0-0.5-0.1-0.7c-0.1-0.2-0.3-0.2-0.5-0.2c-0.4,0-0.7,0.2-0.7,0.8l-1.1-0.1
	c0.1-1.3,1.1-1.7,1.9-1.7c0.4,0,1,0.1,1.3,0.5c0.4,0.4,0.4,1,0.4,1.7v2.5c0,0.3,0,0.5,0.1,0.8H38.4z M38.3,81.5
	c-0.5,0.1-1.3,0.2-1.3,1c0,0.4,0.2,0.7,0.5,0.7c0.2,0,0.5-0.2,0.6-0.4c0.2-0.3,0.2-0.6,0.2-1V81.5z"/>
<path class="st0" d="M42.7,79.9h-0.9V82c0,0.7,0.1,0.9,0.5,0.9c0.1,0,0.3,0,0.4,0V84c-0.2,0.1-0.5,0.1-0.7,0.1
	c-0.3,0-0.8-0.1-1.1-0.4c-0.3-0.4-0.3-1-0.3-1.5v-2.3H40v-1.2h0.7l0.1-1.6l1-0.1v1.7h0.9V79.9z"/>
<path class="st0" d="M44.6,81.6v0.3c0,0.6,0.3,1.1,0.8,1.1c0.4,0,0.7-0.3,0.7-0.8l1.1,0.1c0,0.3-0.5,1.8-1.9,1.8c-1.2,0-2-1.1-2-2.7
	c0-1.6,0.7-2.8,2-2.8c0.6,0,1.2,0.3,1.5,0.9c0.3,0.6,0.4,1.4,0.4,2.1H44.6z M46,80.7c0-0.6-0.2-1.1-0.7-1.1c-0.5,0-0.7,0.5-0.8,1.1
	H46z"/>
<path class="st0" d="M49.1,78.7v1h0c0.1-0.6,0.4-1.2,0.9-1.1l0.2,0v1.5c-0.9-0.1-1,0.9-1,1.8v2H48v-5.3H49.1z"/>
<path class="st0" d="M52,78.3h-1.2v-1.5H52V78.3z M52,84h-1.2v-5.3H52V84z"/>
<path class="st0" d="M55.4,84c-0.1-0.3-0.1-0.5-0.1-0.8c-0.3,0.6-0.7,0.9-1.3,0.9c-0.7,0-1.3-0.5-1.3-1.5c0-0.8,0.4-1.3,0.9-1.6
	c0.5-0.2,1.1-0.3,1.6-0.3v-0.1c0-0.2,0-0.5-0.1-0.7c-0.1-0.2-0.3-0.2-0.5-0.2c-0.4,0-0.7,0.2-0.7,0.8l-1.1-0.1
	c0.1-1.3,1.1-1.7,1.9-1.7c0.4,0,1,0.1,1.3,0.5c0.4,0.4,0.4,1,0.4,1.7v2.5c0,0.3,0,0.5,0.1,0.8H55.4z M55.3,81.5
	c-0.4,0.1-1.3,0.2-1.3,1c0,0.4,0.2,0.7,0.5,0.7c0.2,0,0.5-0.2,0.6-0.4c0.2-0.3,0.2-0.6,0.2-1V81.5z"/>
<rect x="57.4" y="76.9" class="st0" width="1.2" height="7.2"/>
<polygon class="st0" points="65.4,84 64.6,84 63.2,78.2 63.2,78.2 63.2,84 62.1,84 62.1,76.9 64.1,76.9 65.1,81.2 66.1,76.9 
	68.1,76.9 68.1,84 66.8,84 66.8,78.2 66.8,78.2 "/>
<path class="st0" d="M71.6,84c-0.1-0.3-0.1-0.5-0.1-0.8c-0.3,0.6-0.7,0.9-1.3,0.9c-0.7,0-1.3-0.5-1.3-1.5c0-0.8,0.4-1.3,0.9-1.6
	c0.5-0.2,1.1-0.3,1.6-0.3v-0.1c0-0.2,0-0.5-0.1-0.7c-0.1-0.2-0.3-0.2-0.5-0.2c-0.4,0-0.7,0.2-0.7,0.8l-1.1-0.1
	c0.1-1.3,1.1-1.7,1.9-1.7c0.4,0,1,0.1,1.3,0.5c0.4,0.4,0.4,1,0.4,1.7v2.5c0,0.3,0,0.5,0.1,0.8H71.6z M71.5,81.5
	c-0.4,0.1-1.3,0.2-1.3,1c0,0.4,0.2,0.7,0.5,0.7c0.2,0,0.5-0.2,0.6-0.4c0.2-0.3,0.2-0.6,0.2-1V81.5z"/>
<path class="st0" d="M75.5,83.7c-0.3,1.2-0.5,2.2-1.6,2.2c-0.2,0-0.4,0-0.6-0.1v-1.2c0.2,0,0.4,0.1,0.6,0.1c0.4,0,0.5-0.2,0.7-0.7
	l-1.5-5.3h1.3l0.8,3.2l0.7-3.2h0.9L75.5,83.7z"/>
<polygon class="st0" points="84.1,84 83,84 80.9,79.2 80.9,79.2 80.9,84 79.9,84 79.9,76.9 81.3,76.9 83.1,81.1 83.2,81.1 
	83.2,76.9 84.1,76.9 "/>
<path class="st0" d="M88.9,81.4c0,1.5-0.8,2.7-2,2.7c-1.3,0-1.9-1.2-1.9-2.8c0-1.5,0.7-2.7,1.9-2.7C88.2,78.6,88.9,79.9,88.9,81.4
	 M86.3,81.2c0,0.6,0,1.9,0.7,1.9c0.7,0,0.7-1,0.7-1.7c0-0.4,0-0.9-0.1-1.3c-0.1-0.3-0.3-0.5-0.6-0.5C86.3,79.6,86.3,80.6,86.3,81.2"
	/>
<path class="st0" d="M92,79.9h-0.9V82c0,0.7,0.1,0.9,0.5,0.9c0.1,0,0.3,0,0.4,0V84c-0.2,0.1-0.5,0.1-0.7,0.1c-0.3,0-0.8-0.1-1.1-0.4
	c-0.3-0.4-0.3-1-0.3-1.5v-2.3h-0.7v-1.2H90l0.1-1.6l1-0.1v1.7H92V79.9z"/>
<path class="st0" d="M97.8,76.9c0.4,0,0.9,0,1.3,0.3c0.4,0.4,0.7,0.9,0.7,1.6c0,0.8-0.4,1.4-1,1.5v0c0.7,0.2,1.2,0.9,1.2,1.8
	c0,0.6-0.3,1.2-0.7,1.5C98.8,84,98.3,84,97.8,84h-2.4v-7.2H97.8z M96.6,79.7h0.9c0.2,0,0.5,0,0.7-0.2c0.1-0.1,0.2-0.4,0.2-0.6
	c0-0.3-0.1-0.5-0.3-0.7c-0.2-0.1-0.5-0.1-0.7-0.1h-0.8V79.7z M96.6,82.7h0.9c0.2,0,0.5,0,0.7-0.2c0.2-0.1,0.3-0.4,0.3-0.7
	c0-0.3-0.1-0.6-0.3-0.7C98.1,81,97.8,81,97.6,81h-0.9V82.7z"/>
<path class="st0" d="M101.7,81.6v0.3c0,0.6,0.3,1.1,0.8,1.1c0.4,0,0.7-0.3,0.7-0.8l1.1,0.1c0,0.3-0.5,1.8-1.8,1.8
	c-1.2,0-2-1.1-2-2.7c0-1.6,0.7-2.8,2-2.8c0.6,0,1.2,0.3,1.5,0.9c0.3,0.6,0.4,1.4,0.4,2.1H101.7z M103.1,80.7c0-0.6-0.2-1.1-0.7-1.1
	c-0.5,0-0.7,0.5-0.8,1.1H103.1z"/>
<path class="st0" d="M110.4,78.9c-0.2-0.6-0.4-0.9-0.9-0.9c-0.3,0-0.8,0.1-0.8,0.7c0,0.5,0.5,0.6,0.8,0.7c0.4,0.1,1,0.3,1.4,0.6
	c0.4,0.4,0.7,1,0.7,1.7c0,0.7-0.2,1.4-0.7,1.8c-0.4,0.4-1,0.6-1.6,0.6c-1,0-2-0.6-2.2-2l1.2-0.4c0.2,0.7,0.6,1,1.1,1
	c0.4,0,0.9-0.2,0.9-0.8c0-0.6-0.6-0.7-1-0.8c-1-0.2-1.9-0.6-1.9-2.2c0-0.7,0.2-1.2,0.6-1.7c0.4-0.4,0.9-0.6,1.4-0.6
	c1,0,1.8,0.4,2.1,1.7L110.4,78.9z"/>
<path class="st0" d="M114.8,84v-0.9h0c-0.2,0.7-0.6,1-1.2,1c-0.4,0-0.8-0.1-1-0.6c-0.2-0.5-0.2-1-0.2-1.5v-3.3h1.2v3.3
	c0,0.4,0,0.8,0.4,0.8c0.3,0,0.5-0.2,0.6-0.5c0.1-0.2,0.1-0.5,0.1-0.8v-2.9h1.2V84H114.8z"/>
<path class="st0" d="M118.1,78.3h-1.2v-1.5h1.2V78.3z M118.1,84h-1.2v-5.3h1.2V84z"/>
<path class="st0" d="M121.4,79.9h-0.9V82c0,0.7,0,0.9,0.5,0.9c0.1,0,0.3,0,0.4,0V84c-0.2,0.1-0.5,0.1-0.7,0.1c-0.3,0-0.8-0.1-1-0.4
	c-0.3-0.4-0.3-1-0.3-1.5v-2.3h-0.7v-1.2h0.7l0.1-1.6l1-0.1v1.7h0.9V79.9z"/>
<path class="st0" d="M124.6,84c-0.1-0.3-0.1-0.5-0.1-0.8c-0.3,0.6-0.7,0.9-1.3,0.9c-0.7,0-1.3-0.5-1.3-1.5c0-0.8,0.4-1.3,0.9-1.6
	c0.5-0.2,1.1-0.3,1.6-0.3v-0.1c0-0.2,0-0.5-0.1-0.7c-0.1-0.2-0.3-0.2-0.5-0.2c-0.4,0-0.7,0.2-0.7,0.8l-1.1-0.1
	c0.1-1.3,1.1-1.7,1.9-1.7c0.4,0,1,0.1,1.3,0.5c0.4,0.4,0.4,1,0.4,1.7v2.5c0,0.3,0,0.5,0.1,0.8H124.6z M124.5,81.5
	c-0.5,0.1-1.3,0.2-1.3,1c0,0.4,0.2,0.7,0.5,0.7c0.2,0,0.5-0.2,0.6-0.4c0.2-0.3,0.2-0.6,0.2-1V81.5z"/>
<path class="st0" d="M126.6,76.9h1.2v2.5h0c0.2-0.5,0.5-0.8,1-0.8c1.2,0,1.5,1.5,1.5,2.8c0,1.4-0.4,2.7-1.6,2.7
	c-0.6,0-0.9-0.3-1.2-0.9c-0.1,0.2-0.2,0.5-0.2,0.8h-0.7V76.9z M127.8,81.8c0,0.3,0,0.6,0.1,0.9c0.1,0.2,0.3,0.4,0.5,0.4
	c0.7,0,0.7-1.1,0.7-1.7c0-0.6,0-1.7-0.7-1.7c-0.6,0-0.6,0.8-0.6,1.4V81.8z"/>
<rect x="131" y="76.9" class="st0" width="1.2" height="7.2"/>
<path class="st0" d="M134.3,81.6l0,0.3c0,0.6,0.3,1.1,0.8,1.1c0.4,0,0.7-0.3,0.7-0.8l1.1,0.1c0,0.3-0.5,1.8-1.9,1.8
	c-1.2,0-2-1.1-2-2.7c0-1.6,0.7-2.8,2-2.8c0.6,0,1.2,0.3,1.5,0.9c0.3,0.6,0.4,1.4,0.4,2.1H134.3z M135.7,80.7c0-0.6-0.2-1.1-0.7-1.1
	c-0.5,0-0.7,0.5-0.8,1.1H135.7z"/>
<path class="st0" d="M141.4,84h-1.2v-4h-0.5v-1.2h0.5c0-0.5,0-1,0.2-1.4c0.2-0.5,0.7-0.7,1.1-0.7c0.1,0,0.4,0,0.7,0.1V78
	c-0.2,0-0.3,0-0.4,0c-0.4,0-0.4,0.3-0.4,0.8v0.1h0.7v1.2h-0.7V84z"/>
<path class="st0" d="M146.3,81.4c0,1.5-0.8,2.7-2,2.7c-1.2,0-1.9-1.2-1.9-2.8c0-1.5,0.7-2.7,1.9-2.7
	C145.6,78.6,146.3,79.9,146.3,81.4 M143.7,81.2c0,0.6,0,1.9,0.7,1.9c0.7,0,0.7-1,0.7-1.7c0-0.4,0-0.9-0.1-1.3
	c-0.1-0.3-0.3-0.5-0.5-0.5C143.7,79.6,143.7,80.6,143.7,81.2"/>
<path class="st0" d="M148.2,78.7v1h0c0.1-0.6,0.4-1.2,0.9-1.1l0.2,0v1.5c-0.9-0.1-1,0.9-1,1.8v2h-1.2v-5.3H148.2z"/>
<path class="st0" d="M155.5,79.7c0-0.8-0.2-1.5-0.9-1.5c-0.9,0-1,1.5-1,2.4c0,1,0.1,2.2,1.1,2.2c0.6,0,0.9-0.7,1-1.3l1.2,0.1
	c-0.1,1.6-1,2.6-2.3,2.6c-1.6,0-2.4-1.7-2.4-3.7c0-2,0.8-3.7,2.5-3.7c1.4,0,2.1,1,2.2,2.7L155.5,79.7z"/>
<path class="st0" d="M161.2,84H160v-2.9c0-0.5,0.1-1.3-0.5-1.3c-0.2,0-0.5,0.1-0.6,0.4c-0.1,0.3-0.1,0.6-0.1,0.9V84h-1.2v-7.2h1.2
	v2.6h0c0.2-0.5,0.6-0.8,1.1-0.8c0.4,0,0.8,0.2,1,0.6c0.2,0.4,0.2,0.9,0.2,1.5V84z"/>
<path class="st0" d="M163.3,78.3h-1.2v-1.5h1.2V78.3z M163.3,84h-1.2v-5.3h1.2V84z"/>
<rect x="164.3" y="76.9" class="st0" width="1.2" height="7.2"/>
<path class="st0" d="M168.9,84v-0.8h0c-0.2,0.6-0.6,0.9-1.1,0.9c-1.2,0-1.5-1.5-1.5-2.7c0-1.3,0.3-2.8,1.5-2.8c0.5,0,0.8,0.2,1,0.7
	v-2.4h1.2V84H168.9z M168.8,81.1c0-0.5,0-1.4-0.6-1.4c-0.7,0-0.7,1.2-0.7,1.8c0,0.6,0.1,1.5,0.7,1.5c0.2,0,0.4-0.2,0.5-0.4
	c0.1-0.2,0.1-0.5,0.1-0.8V81.1z"/>
<path class="st0" d="M172.1,78.7v1c0.1-0.6,0.4-1.2,0.9-1.1l0.2,0v1.5c-0.9-0.1-1,0.9-1,1.8v2H171v-5.3H172.1z"/>
<path class="st0" d="M174.8,81.6v0.3c0,0.6,0.3,1.1,0.8,1.1c0.4,0,0.7-0.3,0.7-0.8l1.1,0.1c0,0.3-0.5,1.8-1.8,1.8
	c-1.2,0-2-1.1-2-2.7c0-1.6,0.7-2.8,2-2.8c0.6,0,1.2,0.3,1.5,0.9c0.3,0.6,0.4,1.4,0.4,2.1H174.8z M176.2,80.7c0-0.6-0.2-1.1-0.7-1.1
	c-0.5,0-0.7,0.5-0.8,1.1H176.2z"/>
<path class="st0" d="M178.1,78.7h1.1v0.9h0c0.2-0.7,0.6-1,1.2-1c0.4,0,0.8,0.2,1,0.6c0.2,0.4,0.2,1.1,0.2,1.5V84h-1.2v-2.9
	c0-0.5,0.1-1.3-0.5-1.3c-0.2,0-0.4,0.2-0.5,0.4c-0.1,0.3-0.1,0.6-0.1,0.9V84h-1.2V78.7z"/>
<path class="st0" d="M24,47.6v-11c0-1.1,0.8-1.4,3.2-1.4c5.4-0.1,7,1.1,7.4,5.1c0.1,7.8-2.5,7.3-8.9,7.3
	C25.1,47.7,24.6,47.7,24,47.6 M28.8,61.4c-3.2-0.6-4.9-0.9-4.8-4.2L24,51.5c1,0.1,2.1,0,3.1,0c12.3,0,19,1.2,18.2-11.7
	c-0.1-8.8-6.2-8.4-19.1-8.4c-4.5,0-7.9,0.1-10.5,0.1c-1.9,0-3.2-0.1-5.9,0.1c-2.5,0.1-2.7,2.3-0.4,3.1c2.5,1.1,4.6,0.3,4.8,3.5v19.2
	c-0.1,3.8-2.5,3.6-3.7,4.1c-3.4,0.3-3,3.2-0.7,3.3c1.3,0.1,3.6,0,6.5,0c5.7,0,12.6,0.1,14.1,0C32.4,64.8,32.7,61.7,28.8,61.4"/>
<path class="st0" d="M73.2,53.3C73,52,71.9,52,70.4,51.5c-3-0.4-3.8-3.1-0.4-3.3h5c2.6,0,8.5-0.1,10.2,0c3,0.1,3.7,2.2,0,3.2
	c-1,0.2-2.6,1.2-2.6,3.1c0,1,0,7.2,0,7.2s-1.6,4.2-17.5,3.9c-9.8-0.2-16.7-0.5-17.1-16.7c-0.1-21,13.2-18.6,18.3-19
	c7.3,0.1,11.1,1,13.2,1.8c3.3,1.2,3.4,2.7,3.5,5.6c0.1,2.9-0.6,5.6-3.8,5.7c-4.6,0.4-4.9-1.6-5.2-3.5c-0.7-5.4-1-5.7-6.8-5.7
	c-8.5-0.1-9.4,4.4-9.2,14.5c0.1,7.6,0.3,13.1,8.5,13c4.4,0,6.9-0.3,6.9-3.5C73.3,57.7,73.6,54.8,73.2,53.3"/>
</svg>
